<?xml version="1.0" encoding="UTF-8" standalone="no"?>
<!-- Created with Inkscape (http://www.inkscape.org/) -->

<svg
   xmlns:dc="http://purl.org/dc/elements/1.1/"
   xmlns:cc="http://creativecommons.org/ns#"
   xmlns:rdf="http://www.w3.org/1999/02/22-rdf-syntax-ns#"
   xmlns:svg="http://www.w3.org/2000/svg"
   xmlns="http://www.w3.org/2000/svg"
   xmlns:sodipodi="http://sodipodi.sourceforge.net/DTD/sodipodi-0.dtd"
   xmlns:inkscape="http://www.inkscape.org/namespaces/inkscape"
   width="210mm"
   height="297mm"
   viewBox="0 0 210 297"
   version="1.1"
   id="svg8"
   inkscape:version="0.92.4 (unknown)"
   sodipodi:docname="logo.svg">
  <defs
     id="defs2" />
  <sodipodi:namedview
     id="base"
     pagecolor="#ffffff"
     bordercolor="#666666"
     borderopacity="1.0"
     inkscape:pageopacity="0.0"
     inkscape:pageshadow="2"
     inkscape:zoom="1.9999999"
     inkscape:cx="659.33144"
     inkscape:cy="579.67157"
     inkscape:document-units="mm"
     inkscape:current-layer="layer1"
     showgrid="true"
     inkscape:snap-smooth-nodes="true"
     inkscape:window-width="2560"
     inkscape:window-height="981"
     inkscape:window-x="1920"
     inkscape:window-y="27"
     inkscape:window-maximized="1"
     inkscape:snap-text-baseline="false"
     inkscape:snap-bbox="true"
     inkscape:bbox-nodes="true"
     inkscape:snap-nodes="false"
     inkscape:snap-midpoints="true"
     inkscape:snap-grids="true"
     inkscape:pagecheckerboard="true"
     showborder="false">
    <inkscape:grid
       type="xygrid"
       id="grid876" />
  </sodipodi:namedview>
  <metadata
     id="metadata5">
    <rdf:RDF>
      <cc:Work
         rdf:about="">
        <dc:format>image/svg+xml</dc:format>
        <dc:type
           rdf:resource="http://purl.org/dc/dcmitype/StillImage" />
        <dc:title></dc:title>
      </cc:Work>
    </rdf:RDF>
  </metadata>
  <g
     inkscape:label="Layer 1"
     inkscape:groupmode="layer"
     id="layer1"
     style="display:inline">
    <g
       id="g897"
       inkscape:export-xdpi="436.91"
       inkscape:export-ydpi="436.91">
      <rect
         y="118.40625"
         x="84.666664"
         height="19.84375"
         width="59.531254"
         id="rect891"
         style="fill:none;fill-opacity:1;stroke-width:0.2702896" />
      <text
         id="text817"
         y="132.92395"
         x="102.32748"
         style="font-style:normal;font-weight:normal;font-size:10.73956871px;line-height:1.25;font-family:sans-serif;letter-spacing:0px;word-spacing:0px;fill:#666666;fill-opacity:1;stroke:none;stroke-width:0.26848921"
         xml:space="preserve"><tspan
           style="font-style:normal;font-variant:normal;font-weight:bold;font-stretch:normal;font-size:14.31942558px;font-family:'Days One';-inkscape-font-specification:'Days One Bold';fill:#666666;stroke-width:0.26848921"
           y="132.92395"
           x="102.32748"
           id="tspan815"
           sodipodi:role="line">fiquu</tspan></text>
      <path
         sodipodi:nodetypes="csscsssczc"
         inkscape:connector-curvature="0"
         id="path832"
         d="m 91.645871,119.67092 c -4.153373,-0.17547 -5.21246,4.28171 -5.357645,7.71823 -0.145185,3.43652 0.458002,7.96389 4.68756,8.14262 3.965211,0.16756 5.024038,-8.17603 1.316891,-7.05259 -0.258662,0.30062 -0.594231,0.46611 -1.001708,0.42474 -0.891417,-0.0905 -1.412094,-0.84321 -1.357591,-1.63128 0.05785,-0.83638 0.693259,-1.4955 1.492436,-1.56051 6.482892,-0.52742 6.928576,9.77927 0.206944,11.18423 6.251392,0.0782 9.369442,-6.33869 6.893769,-10.483 -2.475678,-4.14431 -6.277471,-2.21503 -6.880656,-6.74244 z"
         style="fill:#abc837;stroke-width:0.02421649" />
    </g>
    <g
       id="g911"
       inkscape:export-xdpi="936.22858"
       inkscape:export-ydpi="936.22858">
      <rect
         inkscape:export-ydpi="436.91"
         inkscape:export-xdpi="436.91"
         y="146.1875"
         x="85.989586"
         height="27.781248"
         width="27.781248"
         id="rect881"
         style="fill:#abc837;fill-opacity:1;stroke-width:0.46302074" />
      <path
         inkscape:export-ydpi="436.91"
         inkscape:export-xdpi="436.91"
         style="fill:#ffffff;stroke-width:0.02421649"
         d="m 98.952677,151.47916 c -4.153373,-0.17547 -5.21246,4.28171 -5.357645,7.71823 -0.145185,3.43652 0.458002,7.96389 4.68756,8.14262 3.965208,0.16756 5.024038,-8.17603 1.316891,-7.05259 -0.258662,0.30062 -0.594231,0.46611 -1.001708,0.42474 -0.891417,-0.0905 -1.412094,-0.84321 -1.357591,-1.63128 0.05785,-0.83638 0.693259,-1.4955 1.492436,-1.56051 6.48289,-0.52742 6.92858,9.77927 0.206944,11.18423 6.251396,0.0782 9.369446,-6.33869 6.893766,-10.483 -2.47567,-4.14431 -6.277468,-2.21503 -6.880653,-6.74244 z"
         id="path883"
         inkscape:connector-curvature="0"
         sodipodi:nodetypes="csscsssczc" />
    </g>
    <g
       id="g915"
       inkscape:export-xdpi="854.81714"
       inkscape:export-ydpi="854.81714">
      <circle
         inkscape:export-ydpi="436.91"
         inkscape:export-xdpi="436.91"
         r="15.213543"
         cy="160.07811"
         cx="131.6302"
         id="path889"
         style="fill:#abc837;fill-opacity:1;stroke-width:0.33807871" />
      <path
         inkscape:export-ydpi="436.91"
         inkscape:export-xdpi="436.91"
         sodipodi:nodetypes="csscsssczc"
         inkscape:connector-curvature="0"
         id="path887"
         d="m 130.70268,151.47915 c -4.15338,-0.17547 -5.21246,4.28171 -5.35765,7.71823 -0.14518,3.43652 0.458,7.96389 4.68756,8.14262 3.96521,0.16756 5.02404,-8.17603 1.31689,-7.05259 -0.25866,0.30062 -0.59423,0.46611 -1.00171,0.42474 -0.89141,-0.0905 -1.41209,-0.84321 -1.35759,-1.63128 0.0578,-0.83638 0.69326,-1.4955 1.49244,-1.56051 6.48289,-0.52742 6.92858,9.77927 0.20694,11.18423 6.2514,0.0782 9.36945,-6.33869 6.89377,-10.483 -2.47568,-4.14431 -6.27747,-2.21503 -6.88065,-6.74244 z"
         style="fill:#ffffff;stroke-width:0.02421649" />
    </g>
    <g
       id="g907"
       transform="translate(62.177086)"
       inkscape:export-xdpi="436.90668"
       inkscape:export-ydpi="436.90668">
      <rect
         style="fill:#abc837;fill-opacity:1;stroke-width:0.2702896"
         id="rect899"
         width="59.531254"
         height="19.84375"
         x="84.666664"
         y="118.40625" />
      <text
         xml:space="preserve"
         style="font-style:normal;font-weight:normal;font-size:10.73956871px;line-height:1.25;font-family:sans-serif;letter-spacing:0px;word-spacing:0px;fill:#ffffff;fill-opacity:1;stroke:none;stroke-width:0.26848921;"
         x="102.32748"
         y="132.92395"
         id="text903"><tspan
           sodipodi:role="line"
           id="tspan901"
           x="102.32748"
           y="132.92395"
           style="font-style:normal;font-variant:normal;font-weight:bold;font-stretch:normal;font-size:14.31942558px;font-family:'Days One';-inkscape-font-specification:'Days One Bold';fill:#ffffff;stroke-width:0.26848921;">fiquu</tspan></text>
      <path
         style="fill:#ffffff;stroke-width:0.02421649"
         d="m 91.645871,119.67092 c -4.153373,-0.17547 -5.21246,4.28171 -5.357645,7.71823 -0.145185,3.43652 0.458002,7.96389 4.68756,8.14262 3.965211,0.16756 5.024038,-8.17603 1.316891,-7.05259 -0.258662,0.30062 -0.594231,0.46611 -1.001708,0.42474 -0.891417,-0.0905 -1.412094,-0.84321 -1.357591,-1.63128 0.05785,-0.83638 0.693259,-1.4955 1.492436,-1.56051 6.482892,-0.52742 6.928576,9.77927 0.206944,11.18423 6.251392,0.0782 9.369442,-6.33869 6.893769,-10.483 -2.475678,-4.14431 -6.277471,-2.21503 -6.880656,-6.74244 z"
         id="path905"
         inkscape:connector-curvature="0"
         sodipodi:nodetypes="csscsssczc" />
    </g>
    <g
       inkscape:export-ydpi="436.90668"
       inkscape:export-xdpi="436.90668"
       transform="translate(124.35417)"
       id="g925">
      <rect
         y="118.40625"
         x="84.666664"
         height="19.84375"
         width="59.531254"
         id="rect917"
         style="fill:#ffffff;fill-opacity:1;stroke-width:0.2702896" />
      <text
         id="text921"
         y="132.92395"
         x="102.32748"
         style="font-style:normal;font-weight:normal;font-size:10.73956871px;line-height:1.25;font-family:sans-serif;letter-spacing:0px;word-spacing:0px;fill:#abc837;fill-opacity:1;stroke:none;stroke-width:0.26848921;"
         xml:space="preserve"><tspan
           style="font-style:normal;font-variant:normal;font-weight:bold;font-stretch:normal;font-size:14.31942558px;font-family:'Days One';-inkscape-font-specification:'Days One Bold';fill:#abc837;stroke-width:0.26848921;fill-opacity:1;"
           y="132.92395"
           x="102.32748"
           id="tspan919"
           sodipodi:role="line">fiquu</tspan></text>
      <path
         sodipodi:nodetypes="csscsssczc"
         inkscape:connector-curvature="0"
         id="path923"
         d="m 91.645871,119.67092 c -4.153373,-0.17547 -5.21246,4.28171 -5.357645,7.71823 -0.145185,3.43652 0.458002,7.96389 4.68756,8.14262 3.965211,0.16756 5.024038,-8.17603 1.316891,-7.05259 -0.258662,0.30062 -0.594231,0.46611 -1.001708,0.42474 -0.891417,-0.0905 -1.412094,-0.84321 -1.357591,-1.63128 0.05785,-0.83638 0.693259,-1.4955 1.492436,-1.56051 6.482892,-0.52742 6.928576,9.77927 0.206944,11.18423 6.251392,0.0782 9.369442,-6.33869 6.893769,-10.483 -2.475678,-4.14431 -6.277471,-2.21503 -6.880656,-6.74244 z"
         style="fill:#abc837;stroke-width:0.02421649;fill-opacity:1" />
    </g>
  </g>
</svg>
